<svg width="512" height="512" viewBox="0 0 512 512" fill="none" xmlns="http://www.w3.org/2000/svg">
<path d="M256 504C392.967 504 504 392.967 504 256C504 119.033 392.967 8 256 8C119.033 8 8 119.033 8 256C8 392.967 119.033 504 256 504Z" fill="#DFDEFB"/>
<path d="M455.016 403.798C431.887 372.832 401.854 347.688 367.303 330.364C332.753 313.039 294.638 304.012 255.987 304C217.337 303.988 179.216 312.991 144.655 330.294C110.093 347.597 80.0444 372.722 56.8955 403.674C79.9267 434.782 109.927 460.061 144.49 477.484C179.053 494.907 217.218 503.988 255.924 504C294.631 504.012 332.801 494.955 367.376 477.554C401.95 460.153 431.966 434.892 455.016 403.798Z" fill="#714CC2"/>
<path d="M256 272C309.019 272 352 229.019 352 176C352 122.981 309.019 80 256 80C202.981 80 160 122.981 160 176C160 229.019 202.981 272 256 272Z" fill="#714CC2"/>
</svg>
